<svg width="16" height="16" viewBox="0 0 16 16" fill="none" xmlns="http://www.w3.org/2000/svg">
<path d="M7.06041 0.842856C7.61713 0.39984 8.40162 0.384695 8.97503 0.805894L9.63626 1.2916C9.9068 1.49033 10.2337 1.5975 10.5694 1.5975H11.4727C12.1643 1.5975 12.7751 2.04834 12.9789 2.70923L13.2105 3.46027C13.3094 3.7811 13.5082 4.06195 13.7779 4.26192L14.5481 4.83297C15.1115 5.25071 15.3311 5.99045 15.0869 6.64793L14.8212 7.36319C14.6936 7.70677 14.6897 8.08408 14.8102 8.43022L15.1181 9.3147C15.3448 9.96573 15.1221 10.6885 14.5683 11.0991L13.7779 11.6852C13.5082 11.8851 13.3094 12.166 13.2105 12.4868L12.9789 13.2378C12.7751 13.8987 12.1643 14.3496 11.4727 14.3496H10.5694C10.2337 14.3496 9.9068 14.4568 9.63626 14.6555L8.90298 15.1941C8.36408 15.59 7.63406 15.6027 7.08165 15.2259L6.19864 14.6236C5.93686 14.4451 5.62733 14.3496 5.31045 14.3496H4.49809C3.82406 14.3496 3.22461 13.921 3.00658 13.2832L2.71915 12.4424C2.61896 12.1493 2.43464 11.8922 2.18921 11.7032L1.40891 11.1025C0.871021 10.6884 0.658679 9.97641 0.881855 9.33531L1.19694 8.43021C1.31743 8.08408 1.31354 7.70678 1.18594 7.3632L0.912571 6.62716C0.672056 5.97957 0.881246 5.25082 1.42863 4.8294L2.18921 4.24384C2.43464 4.05488 2.61896 3.79781 2.71915 3.50472L3.00658 2.66388C3.22461 2.02608 3.82406 1.5975 4.49809 1.5975H5.56146C5.91797 1.5975 6.26396 1.47663 6.54293 1.25464L7.06041 0.842856Z" fill="#FFED8C"/>
<path d="M12.0313 7.34304L8.87882 10.4955L8.24832 9.86503" fill="#F2CF18"/>
<path d="M3.83484 7.97354L5.79414 9.5C6.15581 9.86603 6.31403 9.89728 6.68758 9.54339L11.4727 5.0725M12.0313 7.34304L8.87882 10.4955L8.24832 9.86503M13.7779 11.6852L14.5683 11.0991C15.1221 10.6885 15.3448 9.96573 15.1181 9.3147L14.8102 8.43022C14.6897 8.08408 14.6936 7.70677 14.8212 7.36319L15.0869 6.64793C15.3311 5.99045 15.1115 5.25071 14.5481 4.83297L13.7779 4.26192C13.5082 4.06195 13.3094 3.7811 13.2105 3.46027L12.9789 2.70923C12.7751 2.04834 12.1643 1.5975 11.4727 1.5975H10.5694C10.2337 1.5975 9.9068 1.49033 9.63626 1.2916L8.97503 0.805894C8.40162 0.384695 7.61713 0.39984 7.06041 0.842856L6.54293 1.25464C6.26396 1.47663 5.91797 1.5975 5.56146 1.5975H4.49809C3.82406 1.5975 3.22461 2.02608 3.00658 2.66388L2.71915 3.50472C2.61896 3.79781 2.43464 4.05488 2.18921 4.24384L1.42863 4.8294C0.881246 5.25082 0.672056 5.97957 0.912571 6.62716L1.18594 7.3632C1.31354 7.70678 1.31743 8.08408 1.19694 8.43021L0.881855 9.33531C0.658679 9.97641 0.871021 10.6884 1.40891 11.1025L2.18921 11.7032C2.43464 11.8922 2.61896 12.1493 2.71915 12.4424L3.00658 13.2832C3.22461 13.921 3.82406 14.3496 4.49809 14.3496H5.31045C5.62733 14.3496 5.93686 14.4451 6.19864 14.6236L7.08165 15.2259C7.63406 15.6027 8.36408 15.59 8.90298 15.1941L9.63626 14.6555C9.9068 14.4568 10.2337 14.3496 10.5694 14.3496H11.4727C12.1643 14.3496 12.7751 13.8987 12.9789 13.2378L13.2105 12.4868C13.3094 12.166 13.5082 11.8851 13.7779 11.6852Z" stroke="#F2CF18" stroke-linecap="round" stroke-linejoin="round"/>
</svg>
