<svg width="19" height="20" viewBox="0 0 19 20" fill="none" xmlns="http://www.w3.org/2000/svg">
<path d="M17.8667 9.20833L10.2083 16.8667C9.27013 17.8049 7.99765 18.3319 6.67083 18.3319C5.34401 18.3319 4.07154 17.8049 3.13333 16.8667C2.19513 15.9285 1.66805 14.656 1.66805 13.3292C1.66805 12.0023 2.19513 10.7299 3.13333 9.79166L10.275 2.65C10.9005 2.02342 11.7492 1.67098 12.6346 1.6702C13.5199 1.66942 14.3693 2.02036 14.9958 2.64583C15.6224 3.2713 15.9749 4.12006 15.9756 5.00538C15.9764 5.89071 15.6255 6.74009 15 7.36666L7.84167 14.5083C7.52893 14.8211 7.10477 14.9968 6.6625 14.9968C6.22023 14.9968 5.79607 14.8211 5.48333 14.5083C5.1706 14.1956 4.99491 13.7714 4.99491 13.3292C4.99491 12.8869 5.1706 12.4627 5.48333 12.15L12.5583 5.08333" stroke="#949494" stroke-width="2" stroke-linecap="round" stroke-linejoin="round"/>
</svg>
